<svg width="197" height="43" viewBox="0 0 197 43" fill="none" xmlns="http://www.w3.org/2000/svg">
<g clip-path="url(#clip0)">
<path d="M154.842 23.2094V20.1821L157.869 19.8457C158.878 19.7336 159.327 18.7245 159.439 18.5003L167.063 6.27887C167.624 5.26977 167.063 4.48491 166.278 4.37278L162.354 3.92429V0.896973H179.509C180.518 0.896973 181.079 1.56971 181.527 2.13032L191.506 17.4912C192.291 18.7245 192.851 19.7336 193.861 19.8457L197 20.1821V23.2094H177.715V20.1821L180.182 19.8457C181.303 19.7336 182.312 19.173 181.303 17.7154L180.406 16.2578H166.727L165.718 17.9397C165.045 18.9488 165.718 19.6215 166.727 19.7336L169.194 20.07V23.0973H154.842V23.2094ZM169.194 12.4456H177.827L173.454 5.60614L169.194 12.4456Z" fill="#ED1B2F"/>
<path d="M142.06 0.896973H119.972V3.92429L122.775 4.14854C123.784 4.26066 124.232 5.04552 124.232 6.05463C124.232 7.06373 124.232 17.1548 124.232 18.0518C124.232 18.8366 123.896 19.6215 122.999 19.8457L120.084 20.1821V23.0973H142.172C152.375 23.0973 156.748 18.1639 156.748 11.6608C156.636 5.83038 152.263 0.896973 142.06 0.896973ZM138.696 18.9488H132.978V5.15764H138.696C144.078 5.15764 146.433 6.391 146.433 11.9971C146.321 17.7154 144.078 18.9488 138.696 18.9488Z" fill="#ED1B2F"/>
<path d="M0 23.2094H17.8275V20.1821L14.8002 19.8457C14.1275 19.7336 13.4548 19.2851 13.4548 17.8275V14.2396H27.2459V17.6033C27.2459 18.6124 27.0216 19.6215 25.9004 19.7336L22.761 20.07V23.0973H40.5885V20.07L37.4491 19.7336C36.8884 19.6215 36.1036 19.173 36.1036 17.9397V6.27887C36.1036 5.04552 36.5521 4.26066 37.4491 4.26066L40.5885 3.92429V0.896973H22.6488V3.92429L25.7883 4.26066C26.7974 4.37278 27.1338 5.26977 27.1338 6.27887V9.75468H13.4548V6.27887C13.4548 4.9334 14.0154 4.37278 14.9124 4.26066L17.9397 3.92429V0.896973H0V3.92429L3.02732 4.26066C4.26067 4.37278 4.48492 5.26977 4.48492 6.391V17.7154C4.48492 18.9488 4.14855 19.7336 3.02732 19.8457L0 20.1821V23.2094Z" fill="#ED1B2F"/>
<path d="M41.4854 11.885C41.4854 4.93341 47.0915 0 59.7614 0C72.3192 0 77.9253 4.93341 77.9253 11.885C77.9253 19.0609 72.3192 23.8822 59.7614 23.8822C47.0915 23.9943 41.4854 19.0609 41.4854 11.885ZM59.6493 4.26067C54.6037 4.26067 51.6885 6.16676 51.6885 11.885C51.6885 17.7154 54.6037 19.6215 59.6493 19.6215C64.6948 19.6215 67.61 17.7154 67.61 11.885C67.61 6.16676 64.8069 4.26067 59.6493 4.26067Z" fill="#ED1B2F"/>
<path d="M78.9346 23.2094H93.1742V20.1821L90.1469 19.8458C89.2499 19.7336 88.6893 19.0609 88.6893 18.0518V6.61524L100.574 22.3125C101.023 22.8731 101.696 23.2094 102.368 23.2094H113.581V6.27888C113.581 5.49401 113.805 4.37279 114.926 4.26066L118.065 3.92429V0.896974H103.826V3.92429L106.965 4.26066C108.087 4.37279 108.311 5.26977 108.311 6.391V17.4912L96.5379 1.79396C96.0894 1.23334 95.5288 0.784851 94.7439 0.784851H78.9346V3.81217L81.8498 4.26066C82.8589 4.37279 83.3074 4.9334 83.3074 6.391V17.7154C83.3074 19.0609 82.971 19.7336 81.8498 19.8458L78.9346 20.1821V23.2094Z" fill="#ED1B2F"/>
<path d="M7.28809 32.7399H11.773V41.934H13.4548V32.7399H17.8276V31.5065H7.28809V32.7399Z" fill="black"/>
<path d="M24.4427 33.749C22.9851 33.749 21.8639 34.3096 21.079 35.3187V31.3944H19.5093V41.934H21.079V38.2339C21.079 35.7672 22.6487 34.8702 24.2184 34.8702C25.7882 34.8702 26.6851 35.7672 26.6851 37.5612V42.0461H28.2549V37.449C28.2549 35.0945 26.9094 33.749 24.4427 33.749Z" fill="black"/>
<path d="M63.1252 34.5338C62.2282 33.749 60.9948 33.4126 59.4251 33.4126C57.8554 33.4126 56.622 33.8611 55.7251 34.646C54.9402 35.4308 54.4917 36.552 54.4917 37.7854C54.4917 39.1309 54.9402 40.2521 55.7251 41.037C56.622 41.8218 57.7433 42.1582 59.4251 42.1582C62.5646 42.1582 64.3585 40.5885 64.3585 37.7854C64.3585 36.4399 63.91 35.3187 63.1252 34.5338ZM62.6767 37.7854C62.6767 38.6824 62.3403 39.4672 61.8918 40.14C61.3312 40.7006 60.4342 41.037 59.4251 41.037C58.416 41.037 57.6311 40.7006 56.9584 40.14C56.3978 39.5794 56.1735 38.7945 56.1735 37.7854C56.1735 35.7672 57.4069 34.5338 59.4251 34.5338C61.4433 34.5338 62.6767 35.7672 62.6767 37.7854Z" fill="black"/>
<path d="M110.217 34.5338C109.432 33.749 108.087 33.4126 106.517 33.4126C104.947 33.4126 103.714 33.8611 102.817 34.646C102.032 35.4308 101.583 36.552 101.583 37.7854C101.583 40.5885 103.377 42.1582 106.517 42.1582C108.087 42.1582 109.32 41.8218 110.217 41.037C111.114 40.2521 111.45 39.243 111.45 37.7854C111.45 36.4399 111.002 35.3187 110.217 34.5338ZM104.05 35.4308C104.611 34.8702 105.508 34.5338 106.517 34.5338C108.647 34.5338 109.768 35.6551 109.768 37.7854C109.768 38.6824 109.432 39.4672 108.871 40.0279C108.311 40.5885 107.414 40.9248 106.405 40.9248C104.387 40.9248 103.153 39.6915 103.153 37.6733C103.265 36.7763 103.49 35.9914 104.05 35.4308Z" fill="black"/>
<path d="M142.06 33.5247C140.49 33.6368 139.593 34.6459 139.145 35.6551V33.6368H137.687V42.0461H139.257V37.6733C139.257 36.8884 139.593 36.2157 140.154 35.6551C140.714 35.2066 141.387 34.8702 142.284 34.8702H143.069V33.5247C142.845 33.5247 142.284 33.5247 142.06 33.5247Z" fill="black"/>
<path d="M48.998 31.5065H44.1768V42.0461H45.8586V38.0097H49.2223C50.6799 38.0097 51.689 37.6733 52.4739 37.1127C53.1466 36.5521 53.483 35.6551 53.483 34.646C53.483 33.8611 53.2587 33.1884 52.6981 32.6278C52.0254 31.8429 50.792 31.5065 48.998 31.5065ZM51.8011 34.646C51.8011 36.1036 50.9041 36.7763 49.1102 36.7763H45.8586V32.7399H48.998C50.9041 32.6278 51.8011 33.3005 51.8011 34.646Z" fill="black"/>
<path d="M133.987 32.852C132.978 31.955 131.408 31.5065 129.278 31.5065H124.569V42.0461H129.278C131.184 42.0461 132.754 41.5976 133.763 40.7006C134.772 39.8036 135.333 38.4581 135.333 36.7763C135.445 34.9823 134.996 33.749 133.987 32.852ZM126.251 32.6278H128.942C130.848 32.6278 132.081 32.9641 132.866 33.6369C133.539 34.3096 133.875 35.2066 133.875 36.6642C133.875 39.3551 132.417 40.7006 129.278 40.7006H126.363V32.6278H126.251Z" fill="black"/>
<path d="M162.915 40.2521V36.7763C162.915 35.8793 162.915 35.2066 162.018 34.4217C161.345 33.749 160.112 33.4126 158.766 33.4126C157.533 33.4126 155.291 33.749 154.954 35.5429H156.636C156.86 34.9823 157.645 34.5338 158.766 34.5338C160.224 34.5338 161.345 35.2066 161.345 36.4399V36.7763H160.448C160.336 36.7763 160.112 36.7763 160 36.7763C158.542 36.7763 156.3 36.8884 155.291 37.8975C154.842 38.346 154.73 38.7945 154.73 39.4672C154.73 41.037 156.075 42.1582 158.094 42.1582C159.663 42.1582 160.672 41.9339 161.457 40.7006C161.457 40.7006 161.457 41.3733 161.569 41.9339C161.794 41.9339 163.139 41.9339 163.139 41.9339C163.139 41.9339 162.915 41.037 162.915 40.2521ZM161.457 38.2339C161.457 40.0278 160.448 41.037 158.542 41.037C157.197 41.037 156.412 40.4763 156.412 39.4672C156.412 39.1309 156.524 38.7945 156.748 38.5703C157.421 37.8975 158.766 37.7854 159.888 37.7854C160 37.7854 160.224 37.7854 160.336 37.7854C160.448 37.7854 160.56 37.7854 160.672 37.7854H161.457V38.2339V38.2339Z" fill="black"/>
<path d="M175.585 33.4126C173.791 33.4126 173.006 34.5338 172.558 35.4308C172.109 34.1975 170.988 33.4126 169.754 33.4126C168.409 33.4126 167.4 34.0853 166.839 35.2066C166.839 35.2066 166.839 34.4217 166.727 33.6368C166.279 33.6368 166.279 33.6368 165.27 33.6368C165.27 34.3096 165.27 34.9823 165.27 35.6551V42.0461H166.839V38.0096C166.839 35.6551 168.073 34.646 169.306 34.646C170.651 34.646 171.212 35.6551 171.212 37.7854V42.0461H172.782V38.0096C172.782 36.7763 173.118 35.8793 173.791 35.3187C174.464 34.7581 175.136 34.646 175.248 34.646C176.033 34.646 176.482 34.8702 176.818 35.4308C177.155 35.8793 177.267 36.6642 177.267 37.7854V41.9339H178.836V37.1127C178.836 35.8793 178.5 34.8702 177.939 34.3096C177.379 33.749 176.594 33.4126 175.585 33.4126Z" fill="black"/>
<path d="M187.021 37.449L184.442 36.8884C183.209 36.6642 182.648 36.3278 182.648 35.7672C182.648 34.9823 183.658 34.6459 185.115 34.6459C186.349 34.6459 187.133 34.9823 187.358 35.6551H189.039C188.927 34.8702 188.479 34.4217 187.806 34.0853C187.021 33.6368 185.788 33.6368 185.115 33.6368C183.994 33.6368 183.097 33.8611 182.424 34.1975C181.639 34.6459 181.079 35.3187 181.079 36.1035C181.079 37.2248 181.864 37.8975 183.321 38.2339L185.788 38.7945C186.685 39.0187 187.582 39.243 187.582 39.9157C187.582 40.8127 186.685 41.2612 185.003 41.2612C183.658 41.2612 182.761 40.8127 182.536 40.0279H180.854C181.191 41.9339 183.209 42.3824 184.891 42.3824C187.918 42.3824 189.376 41.4854 189.376 39.8036C189.264 38.346 188.591 37.7854 187.021 37.449Z" fill="black"/>
<path d="M117.057 31.2823C116.16 31.2823 115.487 31.3944 114.814 31.8429C114.59 32.0671 114.254 32.4035 114.141 32.852C114.029 33.3005 113.917 33.749 113.917 34.5339H112.235V35.6551H113.917V41.8218H115.487V35.6551H118.402V34.5339C118.402 34.5339 115.823 34.5339 115.487 34.5339C115.487 33.4126 115.487 32.9641 115.935 32.6278C116.16 32.4035 116.496 32.2914 117.281 32.2914C117.729 32.2914 118.29 32.2914 118.514 32.4035C118.514 32.2914 118.514 31.3944 118.514 31.2823C118.178 31.3944 117.729 31.2823 117.057 31.2823Z" fill="black"/>
<path d="M77.0284 37.337C76.692 38.3461 76.3557 39.4673 75.9072 40.9249C75.5708 39.8037 75.2344 38.5703 74.7859 37.4491L73.6647 34.0854H71.198L70.0768 37.4491C69.7404 38.5703 69.2919 39.8037 68.9556 40.9249C68.5071 39.4673 68.1707 38.3461 67.8343 37.337L66.8252 33.9733H65.0312L67.6101 41.934H70.0768L71.198 38.4582C71.3101 38.1218 71.4223 37.8976 71.4223 37.5612C71.6465 36.7763 71.9829 35.8794 72.2071 34.9824C72.4314 35.8794 72.7677 36.7763 72.992 37.6733C73.1041 37.8976 73.1041 38.2339 73.2162 38.4582L74.3375 41.934H76.8042L79.383 33.9733H77.589L77.0284 37.337Z" fill="black"/>
<path d="M96.0896 33.5247C94.5199 33.6368 93.6229 34.6459 93.1744 35.6551V33.6368H91.7168V42.0461H93.2865V37.6733C93.2865 36.8884 93.6229 36.2157 94.1835 35.6551C94.7441 35.2066 95.4168 34.8702 96.3138 34.8702H97.0987V33.5247C96.8744 33.5247 96.3138 33.5247 96.0896 33.5247Z" fill="black"/>
<path d="M88.4652 34.5338C87.6803 33.749 86.6712 33.4126 85.3257 33.4126C82.4105 33.4126 80.8408 35.0944 80.8408 37.8975C80.8408 39.1309 81.2893 40.2521 82.0742 40.9248C82.859 41.7097 83.9803 42.1582 85.4379 42.1582C86.447 42.1582 87.4561 41.9339 88.1288 41.4854C88.8016 41.1491 89.3622 40.5885 89.5864 39.8036H87.7925C87.344 40.5885 86.447 41.037 85.3257 41.037C84.2045 41.037 83.3075 40.4763 82.859 39.5794C82.6348 39.243 82.5227 38.6824 82.5227 38.2339H89.8107V37.7854C89.5864 36.3278 89.25 35.3187 88.4652 34.5338ZM82.4105 37.1127C82.4105 37.0005 82.4105 36.7763 82.5227 36.6642C82.859 35.3187 83.8681 34.5338 85.3257 34.5338C87.2318 34.5338 88.0167 35.8793 88.0167 37.1127H82.4105Z" fill="black"/>
<path d="M151.702 34.5338C150.918 33.749 149.909 33.4126 148.563 33.4126C145.648 33.4126 144.078 35.0944 144.078 37.8975C144.078 39.1309 144.527 40.2521 145.311 40.9248C146.096 41.7097 147.218 42.1582 148.675 42.1582C149.684 42.1582 150.693 41.9339 151.366 41.4854C152.039 41.1491 152.599 40.5885 152.824 39.8036H151.03C150.581 40.5885 149.684 41.037 148.563 41.037C147.442 41.037 146.545 40.4763 146.096 39.5794C145.872 39.243 145.76 38.6824 145.76 38.2339C145.76 38.2339 152.824 38.2339 153.048 38.2339C153.048 37.8975 153.048 37.6733 153.048 37.2248C152.712 36.4399 152.487 35.3187 151.702 34.5338ZM145.536 37.1127C145.536 37.0005 145.536 36.7763 145.648 36.6642C145.984 35.3187 146.993 34.5338 148.451 34.5338C150.357 34.5338 151.142 35.8793 151.142 37.1127H145.536Z" fill="black"/>
<path d="M37.8978 34.5338C37.1129 33.749 36.1038 33.4126 34.7584 33.4126C31.8432 33.4126 30.2734 35.0944 30.2734 37.8975C30.2734 39.1309 30.7219 40.2521 31.5068 40.9248C32.2917 41.7097 33.4129 42.1582 34.8705 42.1582C35.8796 42.1582 36.8887 41.9339 37.5614 41.4854C38.2342 41.1491 38.7948 40.5885 39.019 39.8036H37.2251C36.7766 40.5885 35.8796 41.037 34.7584 41.037C33.6371 41.037 32.7401 40.4763 32.2917 39.5794C32.0674 39.243 31.9553 38.6824 31.9553 38.2339H39.2433V37.7854C39.019 36.3278 38.5705 35.3187 37.8978 34.5338ZM31.731 37.1127C31.731 37.0005 31.731 36.7763 31.8432 36.6642C32.1795 35.3187 33.1886 34.5338 34.6462 34.5338C36.5523 34.5338 37.3372 35.8793 37.3372 37.1127H31.731Z" fill="black"/>
</g>
<defs>
<clipPath id="clip0">
<rect width="197" height="42.1582" fill="white"/>
</clipPath>
</defs>
</svg>
